PathFileType	4	(X/Y/Z)	C:\Users\Basilio\Documents\Thesis Gigler\squatting_fais\c3dfiles\077\SLS_back_pre2\markers_experimental.trc
DataRate	CameraRate	NumFrames	NumMarkers	Units	OrigDataRate	OrigDataStartFrame	OrigNumFrames
200.000000	200.000000	4	60	mm	200.000000	768	1537
Frame#	Time	FHD			RBHD			C7			T10			CLAV			LSHO			LUUPA			LMUPA			LDUPA			LLEP			LMEP			LRAD			LUL			LRFIN			RSHO			RUPA1			RMUPA			RDUPA			RLEP			RMEP			RRAD			RUL			RUFIN			LASI			RASI			USACR			LSACR			RSACR			LTHI1			LTHI2			LTHI3			LTHI4			LLFC			LMFC			LTIB1			LTIB2			LTIB3			LTIB4			LLMAL			LHEE			LMT1			LMT2			LMT5			RTHI			RTHI2			RTHI3			RTHI4			RLFC			RMFC			RTIB1			RTIB2			RTIB3			RTIB4			RLMAL			RMMAL			RHEE			RMT1			RMT2			RMT5			LBHD			
		X1	Y1	Z1	X2	Y2	Z2	X3	Y3	Z3	X4	Y4	Z4	X5	Y5	Z5	X6	Y6	Z6	X7	Y7	Z7	X8	Y8	Z8	X9	Y9	Z9	X10	Y10	Z10	X11	Y11	Z11	X12	Y12	Z12	X13	Y13	Z13	X14	Y14	Z14	X15	Y15	Z15	X16	Y16	Z16	X17	Y17	Z17	X18	Y18	Z18	X19	Y19	Z19	X20	Y20	Z20	X21	Y21	Z21	X22	Y22	Z22	X23	Y23	Z23	X24	Y24	Z24	X25	Y25	Z25	X26	Y26	Z26	X27	Y27	Z27	X28	Y28	Z28	X29	Y29	Z29	X30	Y30	Z30	X31	Y31	Z31	X32	Y32	Z32	X33	Y33	Z33	X34	Y34	Z34	X35	Y35	Z35	X36	Y36	Z36	X37	Y37	Z37	X38	Y38	Z38	X39	Y39	Z39	X40	Y40	Z40	X41	Y41	Z41	X42	Y42	Z42	X43	Y43	Z43	X44	Y44	Z44	X45	Y45	Z45	X46	Y46	Z46	X47	Y47	Z47	X48	Y48	Z48	X49	Y49	Z49	X50	Y50	Z50	X51	Y51	Z51	X52	Y52	Z52	X53	Y53	Z53	X54	Y54	Z54	X55	Y55	Z55	X56	Y56	Z56	X57	Y57	Z57	X58	Y58	Z58	X59	Y59	Z59	X60	Y60	Z60	

769	3.84	-91.1666717529297	1616.036987304688	-1098.910522460938	-230.9705047607422	1499.518432617188	-1016.495849609375	-280.6135864257813	1389.459228515625	-1096.533325195313	-406.207977294922	1100.134155273438	-1046.42138671875	-136.5917510986328	1298.751342773438	-1089.106811523438	-156.8331298828125	1348.705444335938	-1256.655151367188	-11.4268798828125	1292.621459960938	-1375.73291015625	21.7744426727295	1321.091186523438	-1351.848999023438	56.08104705810548	1287.489624023438	-1389.304321289063	121.7559814453125	1295.264038085938	-1392.6611328125	127.609489440918	1225.309204101563	-1363.525512695313	420.4489746093751	1323.249633789063	-1299.158813476563	421.924041748047	1325.697265625	-1378.794311523438	518.4193725585939	1352.71044921875	-1313.060913085938	-144.9508666992188	1366.614013671875	-940.0566406250002	1.115634560585022	1324.607543945313	-820.0457153320315	30.73345947265626	1348.225463867188	-851.867126464844	70.8885955810547	1320.392944335938	-814.6045532226565	137.601791381836	1320.652954101563	-822.9385375976565	136.7854766845703	1246.8291015625	-847.476989746094	418.4122924804689	1324.82666015625	-941.8814086914065	432.8807678222657	1336.322265625	-861.985290527344	511.0756225585939	1348.262451171875	-945.829528808594	-328.8927612304688	858.2827148437502	-1176.718505859375	-326.0563354492188	852.7193603515627	-900.9010009765627	-459.6335449218751	1023.418334960938	-1035.238403320313	-483.5433349609376	1005.68505859375	-1065.626953125	-484.0936279296876	996.8433837890627	-1010.657836914063	-306.9454040527344	715.8646240234376	-1235.671997070313	-233.9297332763672	673.3618774414064	-1227.772705078125	-198.2154235839844	703.9717407226564	-1218.454833984375	-226.2923126220704	614.4399414062501	-1214.649291992188	-124.2859954833985	507.823455810547	-1168.19677734375	-126.4217529296875	506.4802246093751	-1039.964599609375	-168.0780792236328	303.6173400878907	-1065.14306640625	-209.6124420166016	263.7077636718751	-1133.700317382813	-186.5351257324219	255.3101654052735	-1093.781005859375	-229.9694213867188	196.3687591552735	-1053.364013671875	-329.2400207519532	105.2404937744141	-1096.1318359375	-397.7259826660157	79.5320281982422	-1041.691162109375	-183.0730895996094	58.8531837463379	-1060.821533203125	-192.0810089111329	45.14210510253907	-1109.638305664063	-304.5684204101563	121.1987380981446	-1009.62109375	-419.2879638671876	560.3388671875001	-827.5323486328127	-375.9642944335938	505.347137451172	-820.8294067382815	-342.5220642089844	506.894744873047	-824.7977294921877	-406.5257568359376	430.3446350097657	-836.3301391601565	-421.8680419921876	398.1400756835939	-844.1072998046877	-399.2413024902345	364.7154235839844	-970.9791259765627	-540.3710327148439	365.5567626953126	-896.4114379882815	-607.8485717773439	446.9537353515626	-879.165710449219	-616.7977294921876	407.2764892578126	-902.081481933594	-647.3577270507814	416.681121826172	-952.6453857421877	-807.4995727539065	526.7664184570314	-951.169128417969	-783.0368652343752	500.191131591797	-1037.185668945313	-795.925231933594	599.3619384765626	-1004.33837890625	-906.8883056640627	406.610321044922	-1048.586547851563	-918.5150146484377	407.710418701172	-1007.4443359375	-946.860046386719	432.9092712402345	-969.4338989257815	-229.6936035156251	1501.64697265625	-1162.483032226563	
770	3.845	-90.21498107910158	1614.798950195313	-1098.136962890625	-230.1992950439454	1498.34765625	-1015.659362792969	-279.5705566406251	1388.243408203125	-1095.60498046875	-406.0174255371095	1099.309326171875	-1046.134887695313	-136.269775390625	1297.233642578125	-1088.729736328125	-155.990219116211	1347.49462890625	-1255.957153320313	-11.22965526580811	1291.66796875	-1375.364379882813	21.86366653442383	1319.968505859375	-1351.543090820313	55.9363136291504	1286.941284179688	-1389.3779296875	121.715316772461	1293.921752929688	-1391.743286132813	127.44384765625	1224.529052734375	-1363.806396484375	420.486785888672	1321.903930664063	-1300.109619140625	422.2273559570314	1324.362670898438	-1379.609008789063	518.3600463867189	1350.906127929688	-1314.14794921875	-144.1203308105469	1365.217163085938	-939.6714477539065	2.163217544555665	1323.019165039063	-819.720397949219	31.5774097442627	1346.444458007813	-851.4913330078127	71.91600799560548	1318.739135742188	-814.4895019531252	138.4405059814453	1319.056884765625	-822.9010009765627	137.6774291992188	1245.3369140625	-847.6457519531252	418.8055725097657	1323.591552734375	-941.9627685546877	434.0010375976564	1335.224853515625	-861.9266357421877	511.9886169433595	1347.314331054688	-946.3930664062502	-329.0331115722657	857.263366699219	-1176.629760742188	-326.6964416503907	851.6004028320315	-900.859802246094	-459.6964416503907	1022.841857910156	-1035.306518554688	-483.4679565429689	1004.759582519531	-1065.822509765625	-484.2279052734376	996.1797485351565	-1010.770690917969	-306.2637023925782	715.3117675781251	-1235.275634765625	-234.525375366211	673.3887329101564	-1227.216796875	-197.0865325927735	703.7844238281251	-1217.059936523438	-225.9962310791016	614.4098510742189	-1213.552124023438	-123.6820755004883	507.9054565429689	-1166.55126953125	-126.7020416259766	506.4173583984376	-1038.289916992188	-168.0535583496094	303.3408813476563	-1063.854370117188	-209.572982788086	263.6585998535157	-1132.770141601563	-186.5896453857422	255.5557403564454	-1092.9296875	-230.0678863525391	196.2444305419922	-1052.487548828125	-329.0599670410157	105.2706298828125	-1095.855834960938	-397.7729492187501	79.46334838867189	-1041.602172851563	-183.0896606445313	59.01946258544923	-1060.5546875	-192.1910552978516	45.27440643310548	-1109.432250976563	-304.7398986816407	120.9701538085938	-1009.219909667969	-419.7032470703126	559.2308349609376	-828.6679687500002	-376.1806335449219	504.2464294433595	-821.8867187500002	-342.7747802734376	505.9173889160157	-825.9525146484377	-406.8333740234376	429.1961059570314	-837.4776611328127	-422.0257263183595	397.1520996093751	-845.3959960937502	-400.826873779297	364.3321228027344	-972.8338623046877	-540.2707519531251	364.5060424804688	-897.771667480469	-607.9822387695314	446.1681213378907	-880.336853027344	-617.1138916015626	406.4777832031251	-903.183776855469	-647.5040283203126	416.003387451172	-953.779968261719	-807.5266113281252	526.4959716796876	-951.7212524414065	-783.0581054687502	499.8206176757814	-1037.854858398438	-795.9028930664065	599.1241455078126	-1004.868103027344	-907.3121337890627	406.5114746093751	-1049.136962890625	-918.7327270507815	407.5263977050782	-1008.105834960938	-947.0562744140627	432.8343811035157	-969.7414550781252	-229.2041931152344	1500.440307617188	-1161.833984375	
771	3.85	-89.55154418945314	1613.240356445313	-1097.372802734375	-229.4253082275391	1496.8974609375	-1014.977233886719	-278.9777221679688	1387.060424804688	-1094.933227539063	-405.9940795898439	1098.271362304688	-1045.834228515625	-135.4588317871094	1296.040649414063	-1088.056274414063	-155.6425018310547	1346.495239257813	-1255.43896484375	-11.11881923675537	1290.940307617188	-1375.160278320313	22.08981704711914	1319.311889648438	-1351.3466796875	56.04592132568361	1286.19873046875	-1389.252075195313	120.9606094360352	1293.212646484375	-1392.1064453125	127.9019775390625	1223.143310546875	-1363.89892578125	420.508026123047	1320.665405273438	-1301.0439453125	422.1886596679689	1323.354248046875	-1380.360107421875	518.1404418945314	1349.7587890625	-1314.890258789063	-143.396713256836	1363.732543945313	-939.164978027344	3.045231819152833	1321.375854492188	-819.449157714844	32.5564308166504	1345.101684570313	-851.2305908203127	72.91379547119142	1317.343994140625	-814.3701782226565	139.4796142578125	1317.611938476563	-822.7017211914065	138.4981994628907	1243.7744140625	-847.7635498046877	419.5314025878907	1322.334716796875	-942.1406860351565	434.7780151367189	1333.831665039063	-862.3479614257815	512.6041259765626	1346.15869140625	-946.8487548828127	-329.1798095703126	856.5657348632815	-1176.715209960938	-327.4791564941407	850.2806396484377	-900.968200683594	-459.9360351562501	1022.0439453125	-1035.328002929688	-483.6452941894532	1004.069519042969	-1065.945190429688	-484.4532775878907	995.3273925781252	-1010.884643554688	-306.2189331054688	715.2371215820314	-1234.998779296875	-234.0982818603516	673.3255004882814	-1226.2705078125	-196.9262847900391	703.6606445312501	-1216.083129882813	-225.5406494140626	614.3683471679689	-1212.8291015625	-122.9157485961914	507.9030761718751	-1164.972290039063	-126.4210968017578	507.028533935547	-1036.202392578125	-168.207015991211	303.6605224609376	-1062.6494140625	-209.4731140136719	263.6239013671876	-1131.949096679688	-186.2701568603516	255.2672119140626	-1091.660766601563	-230.1048583984376	196.0853729248047	-1051.743896484375	-329.0044555664063	105.3018951416016	-1095.555419921875	-397.8363037109376	79.44175720214845	-1041.564697265625	-183.1917266845703	59.15673065185548	-1060.349487304688	-192.0462341308594	45.33406448364259	-1109.225341796875	-304.9751281738282	120.8761749267578	-1008.731872558594	-419.8894653320314	558.0108032226564	-829.677185058594	-376.4909057617188	503.3191833496095	-823.1502685546877	-342.9686889648438	504.9801330566407	-827.2356567382815	-407.0931701660157	427.9531555175782	-838.8043212890627	-422.3439941406251	395.9529113769532	-846.7322998046877	-399.7761840820314	362.9932861328126	-973.6082153320315	-540.6351318359376	363.7531127929688	-899.1273193359377	-608.0573120117189	445.5140380859376	-881.3067626953127	-617.4620971679689	405.8322753906251	-904.3692016601565	-647.5423583984376	415.609100341797	-954.971374511719	-807.6138916015627	526.3273925781251	-952.4046020507815	-783.3875732421877	499.8116455078126	-1038.4580078125	-795.928161621094	599.0927734375001	-1005.242492675781	-907.6762695312502	406.7460327148439	-1049.733520507813	-919.128601074219	407.3819885253907	-1009.016845703125	-947.150085449219	432.7636718750001	-970.133239746094	-228.3225555419922	1498.641967773438	-1160.985473632813	
772	3.855	-88.9010467529297	1612.066284179688	-1096.638916015625	-228.6556549072266	1495.747802734375	-1014.287841796875	-278.6459350585938	1385.956909179688	-1094.337646484375	-405.9250793457032	1097.3955078125	-1045.534301757813	-134.9523162841797	1294.332763671875	-1087.643188476563	-155.3761901855469	1345.294799804688	-1254.81591796875	-11.1573657989502	1290.336547851563	-1375.004516601563	22.55647277832032	1318.392456054688	-1351.079467773438	55.92284011840822	1285.416381835938	-1389.164916992188	120.9729309082032	1292.525146484375	-1392.344604492188	128.3397064208985	1222.430541992188	-1366.100219726563	420.9158935546876	1319.6357421875	-1301.770263671875	422.4370117187501	1322.342163085938	-1381.241455078125	518.3807373046876	1348.105834960938	-1316.118896484375	-142.6924743652344	1362.265747070313	-938.8076171875002	3.967124938964845	1319.892822265625	-819.0704345703127	33.21093368530274	1343.384521484375	-851.0921630859377	73.66138458251955	1315.5849609375	-814.2610473632815	140.3087768554688	1316.227294921875	-822.5814208984377	139.334945678711	1242.417846679688	-847.6965332031252	420.0721130371095	1321.09033203125	-942.465026855469	435.256561279297	1332.236694335938	-862.985290527344	513.2465820312501	1344.940551757813	-947.2509765625002	-328.9272766113282	856.2525024414065	-1176.82470703125	-328.2104187011719	849.028991699219	-901.1350097656252	-460.2671813964845	1020.935852050781	-1035.30712890625	-483.7566223144532	1003.487426757813	-1066.098388671875	-484.7761535644532	994.4807128906252	-1011.0419921875	-305.9391479492188	715.0742187500001	-1234.737915039063	-232.7838134765626	673.0264282226564	-1225.2822265625	-196.4368438720704	703.6030883789064	-1215.202392578125	-224.8014221191407	614.0452880859376	-1212.067016601563	-122.6164321899414	507.9722900390626	-1163.666381835938	-126.7297286987305	506.9935302734376	-1035.014038085938	-168.3295135498047	303.9353942871094	-1061.592163085938	-209.0206909179688	263.9031677246094	-1130.828857421875	-186.3690490722657	255.744613647461	-1090.799072265625	-229.8850097656251	195.8314056396485	-1051.027954101563	-329.9198913574219	105.8323440551758	-1095.446044921875	-397.8559570312501	79.39154052734376	-1041.574340820313	-183.1179351806641	59.19817352294923	-1060.104248046875	-192.0580444335938	45.49969100952149	-1109.001953125	-305.1089172363282	120.8247451782227	-1008.36376953125	-420.3792114257814	557.0234375000001	-830.7158203125002	-376.8776855468751	501.9788513183595	-824.3369750976565	-343.5548400878907	503.6086425781251	-828.459655761719	-407.3685607910157	426.7923583984376	-840.0762939453127	-422.5331115722657	394.9932556152345	-848.0979003906252	-400.4770507812501	362.3487854003907	-975.309020996094	-540.9960327148439	362.7886352539063	-900.379333496094	-608.2965698242189	444.7298889160157	-882.3800048828127	-617.6038208007814	405.1414489746095	-905.426696777344	-647.8213500976564	415.1262512207032	-956.2078857421877	-807.684997558594	526.1166992187501	-953.1693115234377	-783.7046508789065	499.7218322753907	-1039.201782226563	-796.0465087890627	598.9431152343751	-1005.828735351563	-908.153991699219	406.6973876953126	-1050.40771484375	-919.5358886718752	407.3574829101564	-1009.746398925781	-947.274353027344	432.7788391113282	-970.828796386719	-227.6018829345704	1497.3466796875	-1160.13427734375	
